<svg xmlns="http://www.w3.org/2000/svg" viewBox="0 0 1920 800"><rect width="1920" height="800" fill="white"/><line x1="420" y1="70" x2="420" y2="745" stroke="#ECEDF5" stroke-width="2.5"/><line x1="780" y1="70" x2="780" y2="745" stroke="#ECEDF5" stroke-width="2.5"/><line x1="1140" y1="70" x2="1140" y2="745" stroke="#ECEDF5" stroke-width="2.5"/><line x1="1500" y1="70" x2="1500" y2="745" stroke="#ECEDF5" stroke-width="2.5"/><polygon points="60,348.27540700635643 413.0,442.63635759171893 413.0,597.3636424082811 60,691.7245929936436" fill="#EF9ED6"/><polygon points="427.0,442.63635759171893 773.0,452.5 773.0,587.5 427.0,597.3636424082811" fill="#C490DD"/><polygon points="787.0,452.5 1133.0,459.0414258780438 1133.0,580.9585741219562 787.0,587.5" fill="#9D89DF"/><polygon points="1147.0,459.0414258780438 1493.0,499.68047529268125 1493.0,540.3195247073187 1147.0,580.9585741219562" fill="#7C95E4"/><polygon points="1507.0,499.68047529268125 1860,499.68047529268125 1860,540.3195247073187 1507.0,540.3195247073187" fill="#619DE9"/><text x="68" y="125" font-family="Liberation Sans, Arial, sans-serif" font-size="52" font-weight="bold" fill="#23265F">350</text><text x="68" y="170" font-family="Liberation Sans, Arial, sans-serif" font-size="29" font-weight="bold" fill="#1C1E3A">Clicks</text><text x="68" y="206" font-family="Liberation Sans, Arial, sans-serif" font-size="24" fill="#5A5D7A">at ~$14 per click</text><text x="446" y="125" font-family="Liberation Sans, Arial, sans-serif" font-size="52" font-weight="bold" fill="#23265F">14</text><text x="446" y="170" font-family="Liberation Sans, Arial, sans-serif" font-size="29" font-weight="bold" fill="#1C1E3A">Leads</text><text x="446" y="206" font-family="Liberation Sans, Arial, sans-serif" font-size="24" fill="#5A5D7A">4% of clicks</text><text x="806" y="125" font-family="Liberation Sans, Arial, sans-serif" font-size="52" font-weight="bold" fill="#23265F">10</text><text x="806" y="170" font-family="Liberation Sans, Arial, sans-serif" font-size="29" font-weight="bold" fill="#1C1E3A">Qualified</text><text x="806" y="206" font-family="Liberation Sans, Arial, sans-serif" font-size="24" fill="#5A5D7A">70% of leads</text><text x="1166" y="125" font-family="Liberation Sans, Arial, sans-serif" font-size="52" font-weight="bold" fill="#23265F">8</text><text x="1166" y="170" font-family="Liberation Sans, Arial, sans-serif" font-size="29" font-weight="bold" fill="#1C1E3A">Discovery calls</text><text x="1166" y="206" font-family="Liberation Sans, Arial, sans-serif" font-size="24" fill="#5A5D7A">85% book &amp; show</text><text x="1526" y="125" font-family="Liberation Sans, Arial, sans-serif" font-size="52" font-weight="bold" fill="#1F9D61">2</text><text x="1526" y="170" font-family="Liberation Sans, Arial, sans-serif" font-size="29" font-weight="bold" fill="#1C1E3A">New projects</text><text x="1526" y="206" font-family="Liberation Sans, Arial, sans-serif" font-size="24" fill="#5A5D7A">25% close rate</text></svg>