<svg xmlns="http://www.w3.org/2000/svg" viewBox="0 0 1920 800"><rect width="1920" height="800" fill="white"/><line x1="420" y1="70" x2="420" y2="745" stroke="#ECEDF5" stroke-width="2.5"/><line x1="780" y1="70" x2="780" y2="745" stroke="#ECEDF5" stroke-width="2.5"/><line x1="1140" y1="70" x2="1140" y2="745" stroke="#ECEDF5" stroke-width="2.5"/><line x1="1500" y1="70" x2="1500" y2="745" stroke="#ECEDF5" stroke-width="2.5"/><polygon points="60,317.5 413.0,411.8609505853625 413.0,628.1390494146375 60,722.5" fill="#EF9ED6"/><polygon points="427.0,411.8609505853625 773.0,420.2943153064228 773.0,619.7056846935773 427.0,628.1390494146375" fill="#C490DD"/><polygon points="787.0,420.2943153064228 1133.0,432.18047529268125 1133.0,607.8195247073187 787.0,619.7056846935773" fill="#9D89DF"/><polygon points="1147.0,432.18047529268125 1493.0,472.81952470731875 1493.0,567.1804752926813 1147.0,607.8195247073187" fill="#7C95E4"/><polygon points="1507.0,472.81952470731875 1860,472.81952470731875 1860,567.1804752926813 1507.0,567.1804752926813" fill="#619DE9"/><text x="68" y="125" font-family="Liberation Sans, Arial, sans-serif" font-size="52" font-weight="bold" fill="#23265F">1,000</text><text x="68" y="170" font-family="Liberation Sans, Arial, sans-serif" font-size="29" font-weight="bold" fill="#1C1E3A">Clicks</text><text x="446" y="125" font-family="Liberation Sans, Arial, sans-serif" font-size="52" font-weight="bold" fill="#23265F">40</text><text x="446" y="170" font-family="Liberation Sans, Arial, sans-serif" font-size="29" font-weight="bold" fill="#1C1E3A">Leads</text><text x="446" y="206" font-family="Liberation Sans, Arial, sans-serif" font-size="24" fill="#5A5D7A">4% of clicks</text><text x="806" y="125" font-family="Liberation Sans, Arial, sans-serif" font-size="52" font-weight="bold" fill="#23265F">30</text><text x="806" y="170" font-family="Liberation Sans, Arial, sans-serif" font-size="29" font-weight="bold" fill="#1C1E3A">Qualified</text><text x="806" y="206" font-family="Liberation Sans, Arial, sans-serif" font-size="24" fill="#5A5D7A">75% of leads</text><text x="1166" y="125" font-family="Liberation Sans, Arial, sans-serif" font-size="52" font-weight="bold" fill="#23265F">20</text><text x="1166" y="170" font-family="Liberation Sans, Arial, sans-serif" font-size="29" font-weight="bold" fill="#1C1E3A">Showed calls</text><text x="1166" y="206" font-family="Liberation Sans, Arial, sans-serif" font-size="24" fill="#5A5D7A">67% book &amp; show</text><text x="1526" y="125" font-family="Liberation Sans, Arial, sans-serif" font-size="52" font-weight="bold" fill="#1F9D61">5</text><text x="1526" y="170" font-family="Liberation Sans, Arial, sans-serif" font-size="29" font-weight="bold" fill="#1C1E3A">New clients</text><text x="1526" y="206" font-family="Liberation Sans, Arial, sans-serif" font-size="24" fill="#5A5D7A">25% close rate</text></svg>